<svg xmlns="http://www.w3.org/2000/svg" version="1.1" xmlns:xlink="http://www.w3.org/1999/xlink" xmlns:svgjs="http://svgjs.dev/svgjs" width="2000" height="1500" viewBox="0 0 2000 1500"><rect width="2000" height="1500" fill="#cf5260"></rect><g transform="matrix(0.4444444444444444,0,0,0.4444444444444444,555.5557073912273,250)"><svg viewBox="0 0 320 360" data-background-color="#cf5260" preserveAspectRatio="xMidYMid meet" height="2250" width="2000" xmlns="http://www.w3.org/2000/svg" xmlns:xlink="http://www.w3.org/1999/xlink"><g id="tight-bounds" transform="matrix(1,0,0,1,0.00005466084189720277,0)"><svg viewBox="0 0 320 360" height="360" width="320"><g><svg></svg></g><g><svg viewBox="0 0 320 360" height="360" width="320"><g><path transform="translate(-119.39272,-98.31927) scale(5.58313,5.58313)" d="M36.7 23.5c0-0.2 0.1-0.4 0.3-0.4 0.2 0 0.4 0.1 0.4 0.4 0.1 0 0.3 0 0.4-0.1 0.4 0 0.8-0.1 1.1 0 0.3 0.1 0.5 0.1 0.8 0.2 0.3 0.1 0.5 0 0.7-0.1 0.4-0.1 0.7-0.3 1.1-0.4 0.2-0.1 0.3-0.1 0.5-0.1 0.2-0.1 0.4-0.1 0.7-0.2 0.5-0.1 1-0.2 1.4-0.4 0.4-0.2 0.8-0.2 1.2-0.3 0.2 0 0.3-0.1 0.5-0.2 0.1 0 0.1-0.1 0.2-0.2 0.2-0.1 0.3-0.2 0.5-0.1 0.1 0.1 0.3 0.1 0.4 0h0.1c0.6 0 1.2-0.1 1.9 0 0.1 0 0.2 0 0.2 0 0.3-0.2 0.7-0.2 1.1-0.2 0.1 0 0.3 0 0.4 0h0.1c0.4 0 0.8 0 1.1 0.1 0.3 0 0.5 0.1 0.8 0.2 0.3 0 0.5 0 0.8 0.1 0.2 0 0.4 0 0.6 0 0.1 0 0.2 0 0.2 0 0.4 0.1 0.8 0.1 1.2 0.1 0.3 0.1 0.6 0.2 1 0.2 0.1 0 0.2 0 0.3 0 0.1 0 0.2 0.1 0.3 0.1l0.1 0.1c0.4 0 0.7 0.2 1.1 0.2 0.1 0 0.3 0 0.4 0.1 0.3 0.2 0.7 0.3 1.1 0.3 0.2 0 0.3 0.1 0.4 0.2 0.3 0.1 0.5 0.2 0.8 0.3 0.2 0.1 0.4 0 0.6 0.1 0.3 0.1 0.7 0.2 1 0.5 0.2 0.2 0.4 0.2 0.7 0.4 0.1 0 0.2 0.1 0.3 0.2 0.3 0.2 0.6 0.4 0.9 0.5 0.1 0 0.2 0.1 0.3 0.1 0.3 0.2 0.6 0.5 1 0.7 0.2 0.1 0.3 0.2 0.5 0.3h0.1c0.3 0.3 0.7 0.5 1 0.8 0.3 0.3 0.5 0.5 0.9 0.7 0 0 0 0 0 0.1 0.1 0.2 0.2 0.3 0.4 0.4 0.2 0.1 0.3 0.2 0.4 0.3 0.3 0.2 0.6 0.4 0.8 0.6 0.1 0.1 0.2 0.2 0.4 0.4 0.1 0.1 0.2 0.2 0.3 0.2 0.4 0.1 0.6 0.4 0.9 0.7 0.2 0.2 0.5 0.5 0.7 0.7 0.1 0.1 0.2 0.3 0.3 0.5 0.2 0.6 0.5 1.2 0.8 1.7 0 0 0 0.1 0.1 0.2v0.1c0.2 0.2 0.3 0.5 0.5 0.7 0.1 0.1 0.1 0.2 0.2 0.3 0.2 0.3 0.3 0.7 0.5 1 0.3 0.5 0.5 1 0.7 1.5v0.1c0.1 0.2 0.2 0.4 0.3 0.7 0 0.2 0.2 0.4 0.3 0.7 0.1 0.5 0.4 1 0.5 1.6 0 0.1 0.1 0.2 0.1 0.4 0.1 0.3 0.2 0.6 0.3 0.9 0 0.1 0.1 0.2 0.2 0.3 0.2 0.2 0.2 0.4 0.2 0.6-0.1 0.4 0 0.8 0.1 1.2 0 0.1 0 0.2 0 0.4 0.1 0.4 0.2 0.9 0.2 1.3 0 0.1 0 0.3 0 0.4 0 0.3 0.1 0.6 0.3 0.9 0 0.1 0.1 0.1 0.1 0.1 0.1 0.1 0.2 0.3 0.3 0.4 0.1 0.1 0.1 0.1 0.2 0.2 0.2 0.2 0.3 0.4 0.3 0.7 0 0.1-0.1 0.3-0.1 0.4 0 0.1 0 0.3 0.1 0.4 0.1 0.1 0.1 0.2 0.1 0.3 0 0.1-0.1 0.2-0.2 0.2v0c-0.1 0.3-0.5 0.4-0.6 0.7-0.1 0.4-0.2 0.8-0.3 1.2-0.1 0.3-0.1 0.5-0.1 0.8 0 0.3-0.1 0.5-0.1 0.8-0.1 0.4-0.2 0.8-0.3 1.2 0 0.2-0.1 0.4-0.1 0.6 0.1 0.1 0.2 0.2 0.3 0.2 0.2 0.2 0.4 0.4 0.6 0.6 0.1 0.1 0.1 0.2 0 0.2-0.1 0.1-0.2 0.1-0.3 0.1-0.1-0.1-0.3-0.2-0.4-0.2-0.1-0.1-0.3-0.2-0.5-0.1 0 0.2-0.1 0.4-0.1 0.5-0.1 0.2-0.2 0.5-0.2 0.7-0.1 0.4-0.3 0.7-0.4 1.1-0.2 0.5-0.4 0.9-0.6 1.3-0.1 0.2-0.2 0.4-0.3 0.6v0c0 0.3-0.3 0.6-0.4 0.9-0.2 0.4-0.4 0.8-0.6 1.3-0.1 0.2-0.2 0.4-0.3 0.5-0.2 0.5-0.4 0.9-0.7 1.3-0.2 0.3-0.4 0.5-0.6 0.6-0.2 0.2-0.4 0.4-0.6 0.6-0.1 0.1-0.2 0.2-0.3 0.3-0.1 0.1-0.1 0.1-0.2 0.2-0.2 0.3-0.5 0.5-0.7 0.8-0.2 0.2-0.3 0.4-0.6 0.6-0.2 0.2-0.4 0.5-0.7 0.6-0.1 0.1-0.2 0.3-0.3 0.4-0.1 0.1-0.2 0.3-0.3 0.4 0 0.2 0.1 0.4 0.1 0.5 0 0.3-0.3 0.4-0.5 0.2-0.3-0.2-0.3-0.2-0.6 0-0.3 0.2-0.6 0.5-1 0.6-0.1 0-0.1 0.1-0.2 0.1-0.2 0.1-0.3 0.3-0.5 0.4-0.2 0.2-0.5 0.3-0.7 0.5-0.1 0.1-0.2 0.1-0.3 0.2-0.3 0.2-0.6 0.3-0.9 0.6-0.1 0.1-0.2 0.1-0.3 0.2 0 0.1 0 0.1 0 0.2 0 0.2-0.2 0.4-0.5 0.3-0.3-0.1-0.5 0-0.8 0-0.3 0.1-0.6 0.3-0.9 0.4-0.1 0-0.2 0.1-0.3 0.2-0.3 0.2-0.6 0.3-0.9 0.4-0.2 0-0.4 0.2-0.6 0.2-0.1 0-0.2 0.1-0.3 0.1h-0.1c-0.4 0.3-0.8 0.5-1.2 0.8-0.1 0-0.1 0.1-0.2 0.2-0.1 0.2-0.2 0.3-0.4 0.3-0.5 0-0.7 0.4-0.6 0.8 0 0.1 0.1 0.2 0.1 0.3 0.1 0.2 0 0.4-0.1 0.5-0.1 0.1-0.4 0.1-0.5-0.1-0.2-0.2-0.3-0.4-0.4-0.7-0.1-0.2-0.3-0.4-0.5-0.5-0.2-0.1-0.4-0.1-0.6 0-0.1 0-0.1 0.1-0.2 0.1-0.2 0.2-0.5 0.3-0.8 0.2-0.1 0-0.3 0-0.3 0.1-0.1 0.1-0.1 0.3 0 0.4 0.2 0.2 0.1 0.4 0.1 0.7 0 0.4-0.3 0.6-0.7 0.4-0.1-0.1-0.2-0.1-0.3-0.2-0.1 0-0.1-0.1-0.1-0.2-0.1-0.1-0.1-0.3-0.2-0.5-0.2 0.1-0.4 0.1-0.6 0.2-0.1 0-0.2 0.1-0.3 0.1-0.3 0-0.4 0-0.5-0.3-0.1-0.3-0.3-0.3-0.5-0.4-0.4-0.1-0.9-0.1-1.3-0.3h-0.1c-0.4-0.3-0.8-0.3-1.3-0.3-0.3 0-0.6 0.1-0.9 0.1-0.3 0-0.5 0.1-0.7 0.3-0.1 0.1-0.2 0.2-0.3 0.2-0.1-0.1-0.1-0.2-0.2-0.3v-0.1c0-0.1-0.1-0.2-0.2-0.1-0.2 0.1-0.4-0.1-0.6-0.2-0.1-0.1-0.3-0.3-0.3-0.5-0.1-0.1-0.2-0.2-0.3-0.2-0.2 0-0.5-0.1-0.7-0.1-0.1 0-0.2 0-0.2-0.1-0.1-0.1-0.2-0.1-0.4-0.1-0.1 0-0.1-0.1-0.2-0.1 0.2 0.2 0.3 0.4 0.4 0.6 0 0.1 0.1 0.1 0.1 0.2 0.1 0.2 0 0.3-0.3 0.3-0.2 0-0.2 0-0.3 0.1 0 0.2 0 0.3 0 0.5 0 0.1 0 0.2-0.2 0.3 0 0-0.1 0-0.1 0.1-0.1 0.1-0.1 0.2 0 0.3 0.3 0.2 0.5 0.3 0.8 0.4 0.3 0 0.3 0.2 0.4 0.4 0.1 0.2 0 0.3-0.1 0.5-0.2 0.2-0.4 0.4-0.6 0.6-0.3 0.1-0.5 0.4-0.8 0.4-0.2 0-0.4-0.1-0.5-0.3-0.1-0.5-0.1-0.9 0.1-1.4 0-0.1 0.1-0.2 0-0.3-0.9 0-0.9-0.2-0.9-0.3 0-0.2 0.1-0.3 0.1-0.5 0.1-0.2 0-0.3-0.3-0.4-0.1 0-0.2 0-0.3 0-0.1 0-0.1-0.1-0.3-0.1 0.2-0.1 0.3-0.1 0.5-0.2-0.1-0.4-0.2-0.7-0.5-0.9-0.1-0.1-0.2-0.2-0.2-0.4 0-0.3-0.2-0.5-0.3-0.7-0.2-0.3-0.6-0.4-0.9-0.4-0.3-0.1-0.5-0.1-0.8-0.2-0.3-0.1-0.6-0.4-0.9-0.5-0.1-0.1-0.2-0.2-0.4-0.3-0.4-0.2-0.7-0.5-1-0.8-0.2-0.1-0.3-0.3-0.5-0.4-0.2-0.2-0.3-0.4-0.5-0.5-0.2-0.2-0.4-0.4-0.7-0.6-0.3-0.2-0.5-0.5-0.8-0.8-0.2-0.3-0.5-0.5-0.8-0.7-0.1 0-0.2 0-0.3 0-0.1 0-0.2 0.1-0.3 0.1-0.3 0.1-0.5 0.3-0.8 0.4 0.1-0.1 0.1-0.1 0-0.3-0.1-0.1-0.2-0.2-0.3-0.2-0.2 0-0.4 0-0.6 0-0.4 0-0.8 0.1-1.2 0.1-0.3 0-0.7 0.1-1 0.2 0.1 0.2 0.1 0.3 0.2 0.5-0.2 0.1-0.4 0.1-0.6 0.1-0.1 0-0.3 0.1-0.4 0.2-0.1 0-0.1 0.1-0.2 0-0.2-0.1-0.4 0-0.6 0.1h-0.1c0 0 0-0.1 0.1-0.1 0.1-0.1 0.2-0.2 0.3-0.3 0.1-0.1 0.2-0.1 0.4-0.2-0.1-0.1-0.1-0.2-0.1-0.2-0.1-0.1-0.2-0.1-0.3 0-0.1 0.1-0.2 0.2-0.3 0.3-0.1 0.1-0.2 0.1-0.3 0-0.1-0.1-0.1-0.2 0-0.3 0-0.1 0.1-0.2 0.2-0.3 0.1-0.1 0.1-0.2 0.2-0.3-0.2-0.2-0.3-0.4-0.5-0.5-0.3-0.2-0.6-0.5-0.8-0.8-0.2-0.4-0.5-0.7-0.9-0.9-0.1-0.1-0.2-0.2-0.3-0.3-0.1-0.1-0.1-0.1-0.2-0.2-0.3 0.1-0.5 0.3-0.8 0.4-0.1 0-0.1 0.1-0.2 0.2-0.1 0.2-0.3 0.2-0.5 0.2-0.1 0-0.2-0.1-0.1-0.2 0.1-0.2 0.2-0.4 0.5-0.3 0 0 0.1 0 0.1-0.1 0.2-0.2 0.4-0.5 0.7-0.7-0.1-0.3-0.3-0.5-0.4-0.7-0.1-0.1-0.1-0.2-0.1-0.4 0-0.1 0-0.1-0.1-0.2 0 0-0.1 0-0.2 0.1-0.1 0.1-0.3 0.2-0.5 0 0-0.1 0-0.2 0.1-0.3l0.1-0.1c0.3-0.1 0.3-0.4 0.3-0.7v-0.1c-0.1-0.2-0.1-0.3 0.1-0.5 0.3-0.2 0.6-0.6 0.7-0.9 0.1-0.2 0.3-0.3 0.5-0.5 0.2-0.2 0.4-0.4 0.5-0.7h0.1c0.4 0.1 0.5-0.2 0.7-0.5 0-0.1 0-0.2 0.1-0.2 0.2-0.2 0.2-0.4 0.1-0.7 0-0.1-0.1-0.3-0.1-0.4 0-0.1 0-0.1-0.1-0.2-0.3-0.2-0.3-0.4 0-0.6 0.2-0.1 0.2-0.3 0.3-0.4 0.1-0.2 0.1-0.4 0.1-0.7-0.1-0.3-0.1-0.7-0.2-1-0.1-0.4-0.2-0.9-0.3-1.3 0-0.1 0-0.1 0-0.2 0-0.3 0-0.5-0.1-0.8-0.1-0.1-0.1-0.3-0.1-0.4-0.1-0.3-0.2-0.5-0.5-0.6-0.3-0.2-0.7-0.3-1-0.5-0.1-0.1-0.2 0-0.3 0.1-0.1 0.2-0.3 0.4-0.4 0.6-0.1 0.1-0.2 0.3-0.3 0.5-0.2 0.2-0.6 0.4-0.9 0.1-0.1-0.2-0.2-0.3 0-0.5 0.2-0.3 0.4-0.6 0.7-0.8 0.1-0.1 0.2-0.3 0.3-0.4 0.1-0.2 0.1-0.4 0.1-0.6-0.1-0.4-0.2-0.8-0.2-1.3 0-0.5 0-0.9 0.1-1.4 0.1-0.2 0.1-0.5 0.2-0.7 0-0.1 0.1-0.3 0.2-0.4 0.2-0.2 0.4-0.4 0.5-0.7 0.1-0.3 0.3-0.6 0.3-0.9 0-0.1 0.1-0.2 0.1-0.3 0-0.1 0.1-0.3 0.1-0.4-0.1-0.3 0-0.5 0.1-0.7 0.1-0.2 0.2-0.5 0.3-0.7 0.2-0.4 0.2-0.9 0.6-1.3 0.1-0.2 0.2-0.4 0.3-0.6 0.1-0.4 0.3-0.7 0.5-1 0.1-0.1 0.1-0.1 0.1-0.2 0.1-0.3 0.3-0.6 0.5-0.9 0.2-0.3 0.2-0.6 0.3-0.9 0-0.1 0-0.2 0.1-0.3 0.3-0.3 0.2-0.7 0.1-1.1-0.2-0.5-0.3-1-0.2-1.5 0-0.1 0-0.2 0.1-0.2 0.1-0.2 0.1-0.3 0.2-0.5v-0.1c0.2-0.2 0.4-0.5 0.7-0.6 0.4-0.2 0.8-0.3 1.3-0.4 0.4 0 0.8-0.2 1.1-0.6 0-0.1 0.1-0.1 0.2-0.2l0.1-0.1c0.1-0.2 0.2-0.3 0.3-0.4 0.2-0.2 0.4-0.5 0.6-0.7 0.2-0.2 0.4-0.5 0.7-0.8l0.1-0.1c0.2-0.2 0.4-0.4 0.6-0.5 0.2-0.2 0.4-0.4 0.6-0.6 0.2-0.2 0.3-0.4 0.5-0.6 0.2-0.1 0.4-0.3 0.6-0.5 0.2-0.2 0.4-0.4 0.5-0.5 0.2-0.2 0.5-0.4 0.7-0.5 0.2-0.1 0.4-0.2 0.5-0.5 0.1-0.3 0.2-0.5 0.3-0.8 0-0.2 0.1-0.4 0.2-0.6 0.1 0 0.2 0 0.4-0.1-0.1-0.1-0.2-0.1-0.2-0.2 0-0.1 0.1-0.2 0.1-0.2 0-0.1 0.1-0.2 0.1-0.3 0 0 0.1 0 0.1-0.1 0 0 0.1 0 0.1-0.1-0.2 0.1-0.3 0-0.4-0.1 0.1 0.1 0.2 0.1 0.4 0.2 0 0 0.1 0 0.1-0.1 0-0.1 0-0.2 0-0.2 0 0-0.1 0-0.2 0-0.1 0-0.2 0.1-0.3 0.1zM54 70.5c0-0.1-0.1-0.1-0.1-0.2-0.1-0.2 0-0.3 0.1-0.4 0.1-0.1 0.2-0.1 0.4-0.1 0.2 0.1 0.3 0.2 0.3 0.4 0 0.1 0 0.3 0 0.4 0.1 0.4 0.1 0.4 0.5 0.4 0.2 0 0.4 0 0.6 0 0.4-0.1 0.8-0.3 1.2-0.4 0.4-0.1 0.8-0.2 1.2-0.3 0.1 0 0.2 0 0.4 0 0.4 0.1 0.7 0 1-0.2 0.1-0.1 0.3-0.1 0.4-0.2 0.2-0.1 0.4-0.1 0.6-0.2 0.5-0.3 1-0.5 1.4-0.8 0.3-0.2 0.6-0.4 0.9-0.6 0.3-0.2 0.6-0.4 0.9-0.6 0.2-0.1 0.5-0.3 0.7-0.5 0.4-0.3 0.7-0.6 1.1-0.8 0.2-0.1 0.3-0.2 0.4-0.3 0.2-0.1 0.3-0.3 0.5-0.4 0.1-0.1 0.2-0.2 0.4-0.3 0.1-0.1 0.1-0.1 0.1-0.2 0.3-0.2 0.6-0.6 0.8-0.9 0.2-0.2 0.4-0.4 0.6-0.7 0.3-0.3 0.5-0.7 0.8-1.1 0.2-0.2 0.4-0.5 0.5-0.7 0.2-0.4 0.4-0.8 0.7-1.1v-0.1c0.2-0.4 0.4-0.8 0.6-1.2 0.3-0.5 0.5-1.1 0.8-1.6 0.1-0.2 0.2-0.4 0.2-0.6 0.2-0.4 0.3-0.8 0.4-1.2 0-0.1 0-0.1 0.1-0.2 0.3-0.6 0.5-1.2 0.6-1.9 0.1-0.4 0.2-0.8 0.3-1.2 0.2-0.6 0.2-1.1 0.3-1.7 0.1-0.4 0.1-0.9 0.1-1.3 0.1-0.6 0.1-1.3 0-1.9 0-0.5-0.1-1.1-0.1-1.6 0-0.5-0.1-0.9-0.2-1.4-0.1-0.5-0.2-0.9-0.3-1.4-0.2-0.4-0.3-0.8-0.4-1.3-0.1-0.4-0.3-0.7-0.3-1.1 0-0.3-0.1-0.6-0.4-0.7-0.3-0.1-0.5-0.2-0.8-0.4-0.6-0.4-0.9-0.9-0.8-1.5 0-0.3 0.1-0.7 0.2-1 0.1-0.3 0.2-0.6 0-0.8-0.1-0.3-0.3-0.5-0.4-0.7-0.2-0.3-0.3-0.5-0.5-0.7-0.2-0.4-0.4-0.8-0.7-1.1-0.4-0.5-0.7-1-1.2-1.4l-0.1-0.1c-0.3-0.4-0.6-0.8-1-1.1-0.2-0.2-0.4-0.4-0.6-0.5-0.1-0.1-0.2-0.2-0.4-0.3-0.3-0.2-0.6-0.3-0.8-0.5-0.3-0.3-0.7-0.5-1-0.7 0 0-0.1 0-0.1-0.1-0.4-0.2-0.7-0.3-1.1-0.5-0.4-0.2-0.8-0.3-1.2-0.3-0.1 0-0.1 0-0.2 0-0.1-0.1-0.3-0.1-0.4-0.1-0.1 0-0.1 0-0.2 0-0.2-0.1-0.5 0-0.7 0-0.4 0.1-0.8 0.1-1.2-0.1-0.5-0.2-0.9-0.4-1.3-0.6-0.3-0.2-0.5-0.4-0.8-0.6-0.6-0.5-1.2-1.1-1.9-1.6 0.1-0.5-0.1-0.6-0.5-0.6-0.2 0-0.4 0.1-0.6 0.2-0.1 0.1-0.1 0.1-0.2 0.2-0.3 0.2-0.5 0.5-0.8 0.7-0.5 0.3-0.7 0.2-1.1 0-0.1-0.1-0.2-0.2-0.3-0.3-0.2-0.2-0.4-0.5-0.5-0.7-0.2-0.4-0.6-0.4-1-0.4-0.2 0-0.5 0.1-0.7 0.1-0.4 0-0.8 0.2-1 0.5-0.2 0.3-0.4 0.6-0.7 0.9-0.1 0.1-0.3 0.2-0.4 0.4-0.2 0.2-0.4 0.2-0.6 0-0.1-0.1-0.2-0.1-0.3-0.2-0.1 0.1-0.2 0.2-0.2 0.3-0.1 0.2-0.2 0.4-0.3 0.7-0.1 0.3-0.3 0.6-0.5 0.8-0.1 0.1-0.1 0.1-0.2 0.2-0.1 0.2-0.4 0.3-0.6 0.3-0.2 0.2-0.4 0.5-0.5 0.7-0.1 0.2-0.2 0.4-0.3 0.7-0.1 0.1-0.1 0.3-0.2 0.4-0.1 0.2-0.1 0.3-0.1 0.5 0.1 0.3-0.1 0.4-0.4 0.5-0.2 0-0.2 0-0.3 0.2 0 0.3 0.1 0.5 0.2 0.8 0.1 0.1 0.2 0.3 0.2 0.4 0 0.2 0.1 0.3 0.3 0.4 0.1 0.1 0.2 0.2 0.3 0.2 0.1 0 0.1 0.1 0.2 0.1 0.1 0.1 0.2 0 0.2-0.1 0.1-0.3 0.2-0.6 0.2-0.9 0.1-0.4 0.1-0.7 0.2-1.1 0.1-0.2 0.2-0.3 0.3-0.4 0 0 0.1 0 0.2 0v0.1c-0.1 0.5-0.3 1.1-0.4 1.6-0.1 0.2-0.1 0.4-0.2 0.6 0 0.1-0.1 0.2-0.2 0.2-0.2 0.1-0.4 0.2-0.6 0.2-0.1 0-0.2 0-0.3 0-0.2-0.1-0.4-0.3-0.6-0.4-0.1-0.1-0.2-0.2-0.3-0.3-0.1-0.2-0.2-0.4-0.3-0.6-0.1-0.2-0.2-0.3-0.4-0.4-0.1-0.1-0.2-0.1-0.3-0.2-0.2-0.2-0.4-0.3-0.7-0.3-0.1 0-0.3 0-0.4 0-0.1 0-0.3 0.1-0.4 0.2-0.2 0.1-0.3 0.1-0.5 0-0.5-0.2-1-0.1-1.5 0.1-0.2 0.1-0.4 0.2-0.6 0.2-0.5 0-0.9 0-1.4 0-0.5 0-0.9-0.1-1.4-0.2-0.2 0-0.4 0-0.6 0-0.4 0.1-0.5 0.4-0.4 0.8 0.1 0.4 0.2 0.9 0.2 1.3 0 0.3 0 0.6 0 0.9 0 0.2 0 0.3 0 0.5 0 0.3-0.1 0.6-0.1 0.9-0.1 0.6-0.4 1.1-0.8 1.5-0.3 0.3-0.7 0.6-1.1 0.7-0.2 0.1-0.4 0.2-0.7 0.3-0.5 0.2-0.9 0.6-1.2 1.1-0.1 0.2-0.2 0.4-0.3 0.6-0.2 0.3-0.3 0.5-0.5 0.8-0.1 0.2-0.3 0.4-0.4 0.6-0.1 0.2-0.3 0.3-0.3 0.5-0.2 0.4-0.3 0.8-0.5 1.2-0.1 0.2-0.1 0.5-0.2 0.7-0.2 0.4-0.2 0.8-0.2 1.3 0 0.1 0 0.2 0 0.4 0 0.5-0.1 1.1-0.1 1.6 0 0.5 0 1 0.1 1.5 0 0.2 0 0.5 0 0.7 0 0.4 0.1 0.9 0.1 1.3 0 0.4 0 0.9 0.2 1.3v0.1c0.1 0.4 0.1 0.8 0.2 1.2 0 0.1 0 0.2 0.1 0.3 0.2 0.6 0.3 1.1 0.5 1.7 0.1 0.4 0.3 0.8 0.4 1.2 0.1 0.4 0.5 0.8 0.6 1.3v0c0.3 0.6 0.6 1.2 1 1.8 0.1 0.2 0.3 0.4 0.4 0.6 0.2 0.3 0.3 0.6 0.5 0.8 0.1 0.2 0.3 0.4 0.4 0.5 0.1 0.2 0.2 0.4 0.4 0.6 0.2 0.2 0.4 0.5 0.6 0.7 0.3 0.5 0.7 0.9 1.1 1.2 0.2 0.2 0.4 0.3 0.6 0.5 0.1 0.1 0.2 0.1 0.2 0.2 0.1 0.1 0.2 0.2 0.4 0.3 0.8 0.4 1.4 1 2.1 1.6 0.3 0.3 0.6 0.6 1 0.8 0.4 0.3 0.7 0.6 1.2 0.7 0 0 0.1 0 0.1 0.1 0.2 0.2 0.5 0.3 0.7 0.4 0.4 0.2 0.9 0.4 1.3 0.6 0.1 0.1 0.3 0.1 0.4 0.2 0.3 0.1 0.6 0.2 0.9 0.3 0.3 0.1 0.5 0.2 0.8 0.2h0.1c0.2 0.1 0.3 0.1 0.5 0 0.1 0 0.2 0 0.2 0.1 0 0.1 0.1 0.1 0.2 0.1 0.1 0 0.2 0 0.4 0 0.1-0.1 0.1-0.2 0.2-0.4 0.1 0.1 0.2 0.1 0.2 0.1 0.1 0.2 0.3 0.2 0.5 0.2h0.1c0.2 0 0.3 0 0.4-0.1 0-0.1 0.2-0.1 0.3-0.1 0.3 0.1 0.6 0.1 0.9 0.2 0.2 0.1 0.5 0.1 0.6-0.1 0.1-0.1 0.2-0.2 0.4-0.1 0.2 0.1 0.3 0.1 0.5 0 0.1 0 0.2 0 0.2 0 0.3 0.1 0.5 0.1 0.8 0.2 0.4 0.1 0.4 0.1 0.7-0.2 0.1-0.1 0.3-0.1 0.4 0 0.1 0.2 0.1 0.3 0.1 0.5 0.1 0 0.1 0 0.2-0.1 0-0.2 0.1-0.2 0.3-0.3 0.1 0.1 0.1 0.1 0.2 0.1 0.2 0.2 0.3 0.2 0.4-0.1 0-0.1 0-0.2 0.1-0.2 0.1 0 0.2 0.1 0.2 0.1 0.1 0.2 0.3 0.3 0.4 0.5 0.2 0.2 0.5 0.2 0.6 0 0.1-0.1 0.2-0.1 0.3-0.1 0-0.1 0-0.2 0-0.3 0.3 0.2 0.2 0.2 0.1 0.2zM37.4 23.8c0.3 0.1 0.5 0.1 0.6-0.1-0.2 0.1-0.4-0.1-0.6 0.1z" fill="#f0f0f0" fill-rule="nonzero" stroke="none" stroke-width="1" stroke-linecap="butt" stroke-linejoin="miter" stroke-miterlimit="10" stroke-dasharray="" stroke-dashoffset="0" font-family="none" font-weight="none" font-size="none" text-anchor="none" style="mix-blend-mode: normal" data-fill-palette-color="tertiary"></path></g><g transform="matrix(1,0,0,1,106.22982351916582,90)"><svg viewBox="0 0 107.54035296166836 180" height="180" width="107.54035296166836"><g><svg viewBox="0 0 192 321.36773823235035" height="180" width="107.54035296166836"><g transform="matrix(1,0,0,1,0,161.80865251102853)"><svg viewBox="0 0 192 159.5590857213218" height="159.5590857213218" width="192"><g id="textblocktransform"><svg viewBox="0 0 192 159.5590857213218" height="159.5590857213218" width="192" id="textblock"><g><svg viewBox="0 0 192 159.5590857213218" height="159.5590857213218" width="192"><g transform="matrix(1,0,0,1,0,0)"><svg width="192" viewBox="19.572143532047864 -1.5300566261304454 33.460314283667046 27.80661783656047" height="159.5590857213218" data-palette-color="#f0f0f0"><path d="M35.656 24.195c0.34 0.493 0.513 0.817 0.519 0.97v0c0.004 0.093-0.051 0.152-0.163 0.176-0.112 0.031-0.208 0.048-0.288 0.052-0.08 0.003-0.143 0.006-0.19 0.007v0l-3.843 0.254c-0.187 0.007-0.333-0.067-0.439-0.223-0.106-0.156-0.261-0.433-0.464-0.832v0c-0.127-0.335-0.348-0.783-0.664-1.345v0c-0.485-0.795-1.333-2.295-2.541-4.502v0l-1.874-3.308 0.182 1.804 0.273 2.582c0.255 3.039 0.435 4.716 0.541 5.032v0c0.024 0.092 0.038 0.205 0.044 0.339v0c0.016 0.413-0.192 0.628-0.625 0.645v0c-0.133 0.005-0.247-0.003-0.341-0.026v0c-0.362-0.032-1.246 0.05-2.652 0.246v0c-0.949 0.131-1.527 0.201-1.733 0.209v0c-0.293 0.012-0.495-0.037-0.607-0.146-0.105-0.116-0.162-0.307-0.173-0.574v0l-0.001-0.79-0.139-1.976c-0.234-2.359-0.386-4.411-0.456-6.157v0c-0.036-0.913-0.028-1.54 0.025-1.882v0c0.091-0.571 0.083-2.175-0.022-4.813v0c-0.11-2.751-0.236-4.831-0.379-6.24v0c-0.034-0.179-0.057-0.428-0.07-0.748v0c-0.014-0.36 0.012-0.621 0.079-0.784 0.06-0.163 0.13-0.252 0.209-0.268 0.079-0.017 0.219-0.029 0.419-0.037v0l0.757-0.09c1.558-0.249 2.803-0.392 3.736-0.43v0c2.545-0.102 4.486 0.478 5.824 1.739 1.338 1.254 2.048 2.927 2.132 5.019v0c0.066 1.659-0.407 3.269-1.419 4.831v0c-0.427 0.678-0.926 1.291-1.497 1.841v0l2.56 4.231c1.877 3.068 2.97 4.799 3.28 5.194zM25.328 10.916c0.34-0.014 0.643-0.092 0.912-0.237v0c0.628-0.325 0.923-0.941 0.887-1.846v0c-0.026-0.659-0.149-1.145-0.369-1.457-0.219-0.311-0.489-0.461-0.808-0.448v0c-0.246 0.01-0.456 0.112-0.629 0.305v0c-0.026 0.021-0.02 0.178 0.019 0.47 0.032 0.299 0.054 0.595 0.066 0.888v0c0.01 0.253 0.007 0.437-0.008 0.551v0c-0.078 0.39-0.109 0.788-0.093 1.194v0l-0.027 0.312zM52.748 14.045c0.143 0.098 0.233 0.175 0.269 0.23v0c0.051 0.078-0.027 0.185-0.233 0.32v0l-1.601 1.041c-0.078 0.051-0.149 0.077-0.212 0.078-0.068 0.005-0.16-0.039-0.276-0.131v0c-0.207-0.16-0.534-0.436-0.981-0.829v0c-0.482-0.362-0.875-0.715-1.178-1.059v0c-0.241-0.249-0.557-0.532-0.947-0.851-0.385-0.322-0.692-0.556-0.921-0.701v0c-0.41-0.251-0.828-0.563-1.255-0.938v0l-0.799-0.661c-0.23-0.145-0.386-0.226-0.469-0.243-0.074-0.016-0.169 0.015-0.287 0.091v0c-0.397 0.258-0.688 0.459-0.872 0.603v0l-1.186 0.855c-0.146 0.119-0.847 0.587-2.104 1.404v0l-1.744 1.135-0.058 0.038c-0.112 0.073-0.127 0.233-0.045 0.482v0l0.127 0.323 0.237 0.621c0.023 0.12 0.26 0.754 0.711 1.9v0c0.155 0.36 0.333 0.841 0.533 1.443v0c0.208 0.405 0.325 0.775 0.351 1.108v0c0.001 0.087 0.041 0.252 0.119 0.495 0.082 0.249 0.147 0.453 0.196 0.612v0c0.042 0.187 0.135 0.477 0.278 0.869v0c-0.008 0.037 0.002 0.094 0.029 0.172 0.027 0.078 0.023 0.132-0.013 0.163-0.032 0.037-0.087 0.08-0.165 0.132v0l-0.57 0.37c-0.173 0.113-0.301 0.021-0.383-0.276v0c-0.04-0.061-0.063-0.114-0.067-0.159v0c-0.025-0.039-0.045-0.094-0.059-0.164-0.023-0.072-0.052-0.177-0.086-0.314v0l-0.427-1.226c-0.037-0.143-0.101-0.388-0.191-0.734-0.09-0.347-0.198-0.659-0.323-0.936v0c-0.203-0.52-0.477-1.332-0.821-2.436v0l-0.283-0.949c-0.407-1.421-0.718-2.4-0.932-2.937v0l-0.593-1.773c-0.215-0.759-0.361-1.233-0.436-1.422v0c-0.24-0.663-0.513-1.504-0.818-2.522v0l-0.331-0.931-0.211-0.709c-0.232-0.772-0.375-1.347-0.43-1.725v0c-0.034-0.137-0.153-0.62-0.358-1.449-0.2-0.833-0.391-1.475-0.574-1.929v0c-0.164-0.545-0.251-0.978-0.26-1.298-0.004-0.324 0.117-0.565 0.363-0.725v0c0.095-0.062 0.246-0.037 0.454 0.074 0.208 0.111 0.439 0.259 0.694 0.444 0.255 0.184 0.44 0.322 0.556 0.414v0c0.393 0.261 1.25 0.992 2.571 2.192v0l0.75 0.658c0.121 0.136 1.043 0.864 2.768 2.183v0l1.57 1.222 1.384 1.008c1.518 1.16 2.458 1.853 2.82 2.079v0c1.977 1.585 3.161 2.549 3.551 2.891v0c0.458 0.41 1.074 0.892 1.847 1.447 0.78 0.551 1.22 0.861 1.321 0.93zM41.876 9.032c0.246-0.16 0.325-0.307 0.238-0.441v0c-0.062-0.095-0.262-0.263-0.601-0.503v0c-0.303-0.209-0.823-0.63-1.562-1.263v0c-0.584-0.519-1.109-0.953-1.574-1.302v0c-0.561-0.446-1.207-0.988-1.94-1.625-0.727-0.641-1.184-1.063-1.373-1.266v0c-0.943-0.826-1.462-1.208-1.557-1.147v0c-0.056 0.036 0.016 0.355 0.217 0.957v0l0.238 0.751c0.206 0.598 0.454 1.351 0.743 2.261 0.295 0.906 0.53 1.683 0.706 2.332v0c0.203 0.568 0.451 1.293 0.747 2.175 0.29 0.885 0.468 1.509 0.536 1.87v0c0.037 0.143 0.061 0.223 0.072 0.239v0c0.087 0.134 0.208 0.179 0.362 0.135 0.145-0.046 0.277-0.112 0.396-0.198 0.116-0.091 0.193-0.149 0.232-0.175v0l1.622-1.139c0.204-0.188 0.515-0.419 0.934-0.691v0z" opacity="1" transform="matrix(1,0,0,1,0,0)" fill="#f0f0f0" class="wordmark-text-0" data-fill-palette-color="primary" id="text-0"></path></svg></g></svg></g></svg></g></svg></g><g transform="matrix(1,0,0,1,36.672,0)"><svg viewBox="0 0 118.656 144.91557314109906" height="144.91557314109906" width="118.656"><g><svg xmlns="http://www.w3.org/2000/svg" xmlns:xlink="http://www.w3.org/1999/xlink" version="1.1" x="0" y="0" viewBox="11.889056352527861 2.6109083209738535 76.83802271383558 93.84292493092866" style="enable-background:new 0 0 100 100;" xml:space="preserve" height="144.91557314109906" width="118.656" class="icon-icon-0" data-fill-palette-color="accent" id="icon-0"><path d="M73.1 91.1c0.1 0.4 0.1 0.8 0.1 1.1 0 1-0.2 1.2-1.3 1-0.3 0-0.6-0.3-0.8 0.3-0.5 1.2-0.5 1.2-1.5 0.4-0.1-0.1-0.2-0.3-0.5-0.2 0 0.6 0 1.2 0 1.8 0 0.3 0.1 0.8-0.3 0.9-0.5 0.2-0.7-0.2-1-0.5-0.6-0.9-1.2-1.8-1.7-2.8-0.7-1.6-2-2.2-3.5-2.6-0.3-0.1-0.8 0-1.2 0.1-1.4 0.4-2.8 0.7-4.2 1.1-2.2 0.7-4.5 0.8-6.8 0.2-0.8-0.2-1.6-0.2-2.4-0.4-0.6-0.2-1 0.1-1.3 0.6-0.5 0.8-1.1 1.5-1.6 2.3-0.2 0.3-0.5 0.6-0.8 0.9-0.7 0.6-1 0.5-1.4-0.4-0.1-0.2 0-0.4-0.2-0.6-0.1 0.1-0.3 0.2-0.4 0.3-0.5 0.3-1 0.9-1.5 0.6-0.6-0.3-0.2-1.1-0.3-1.7-0.4 0-0.6 0.4-0.9 0.6-0.5 0.3-1 0.5-1.4 0.1-0.4-0.4-0.4-0.9-0.1-1.4 0.1-0.1 0.1-0.2 0.2-0.4-2.9 0.6-5.8 1.4-8.7 1.3-1.4-0.1-2.7-0.5-3.9-1.3-1-0.7-1-1.4 0-2 1.1-0.6 2.2-1.1 3.3-1.6 1.1-0.4 2.3-0.7 3.4-1.4 0.5-0.3 1-0.1 1.4-0.1 1.1-6.9 2-13.7 2.7-20.5 0.2-1.5 0.4-3 0.6-4.5 0.1-1.1 0.1-2.1-0.7-3-1.3-1.4-1.5-3.2-1-5.1 0.5-1.9 1.4-3.5 2.6-5-0.3-0.6-0.9-0.4-1.4-0.6-0.8-0.3-1.5-0.6-2.1-1.2-0.3-0.3-0.6-0.9-0.4-1.1 1.1-0.9-0.6-2.6 1-3.3 0.2-0.1 0.3-0.2 0.5-0.3-0.2-0.6-0.9-1.2-0.2-1.9 0.6-0.7 1.4-0.9 2.4-0.7 0.6 0.2 1.1 0.4 1.7 0.6 0.7-3 0.9-5.9 1.3-8.9 0.6-4.7 1-9.4 1.6-14.1 0.3-2.7 0.4-2.8-2.2-3.7-2.9-1-5.9-1.2-8.9-0.9-4.8 0.5-9.4 2-13.4 4.8-1.4 1-2.8 2.1-4.1 3.1-0.2 0.2-0.4 0.4-0.7 0.5-0.7 0.3-1.3-0.1-1.2-0.9 0.1-1.1 0.4-2.2 0.9-3.1 2.1-4 5-7.1 8.9-9.5C22 7.6 22.4 7.3 22.9 7c3-2.1 6.4-2.4 9.9-2.1 3.2 0.3 6.4 0.7 9.6 1.6 0.7 0.2 1 0 1-0.7 0-0.1 0-0.1 0-0.2 0.3-2.6 1.4-3.4 3.9-2.8C47.9 3 48.4 3.3 48.6 4c0.2 0.8 0.3 1.7 0.1 2.6-0.3 1.3-0.2 1.5 1 2 0.7 0.3 0.9 0.6 0.7 1.4-0.3 1.1-0.5 2.1-0.7 3.2-0.2 1-0.7 1.7-1.6 2-0.7 0.2-0.9 0.7-1.1 1.4-0.5 2.8-0.8 5.7-1.2 8.6-0.6 4.9-1.2 9.7-1.7 14.6 0 0.1 0 0.2 0.1 0.5 0.7 0 1.4-0.3 2 0.3 0.6 0.6 0.7 1.3 0.8 2.1 0.1 1 0.4 1.3 1.5 1.4 1.3 0.1 2-0.3 2.9-1.3 1.2-1.3 1.1-2.5 0.7-3.9-0.4-1.7-1.2-3.1-2.3-4.4-1.1-1.2-1.5-2.6-1.6-4.3-0.2-3.7 0.9-6.9 2.9-10 0.2-0.3 0.4-0.6 0.7-0.8 0.7-0.5 0.7-1.1 0.6-1.8-0.3-1.7 0.2-3.3 0.5-4.9 0.1-0.8 0.7-1.2 1.5-1.2 1.1 0 2.2 0.2 3.1 1 1.5 1.4 3.3 1.6 5.2 1.2 3.1-0.8 6-0.3 9 0.7 1.8 0.6 3.6 0.9 5.5-0.1 1.3-0.7 2.8-1 4.2-1.6 0.6-0.2 1.2-0.3 1.6 0.2 0.4 0.5 0.6 1.1 0.3 1.8-0.3 0.6-0.6 1.2-1.1 1.8C81 17.6 80.3 19 80 20.5c-0.6 2.5-1.8 4.5-4.1 5.7-1.1 0.6-2 1.6-2.6 2.7-0.6 1.2-1.5 2.2-2.7 2.9-0.1 0.1-0.3 0.2-0.4 0.3-1.4 1.6-2.6 3.3-3.6 5.2-0.4 0.7-0.3 1.3 0.4 1.8 0.6 0.4 0.9 1.1 1.1 1.7 0.2 0.6 0.5 1.2 0.8 1.7 0.3 0.4 0.6 0.7 1.1 0.5 1.9-0.8 4.1-1.2 5.6-2.9 0.5-0.6 0.8-1 0.4-1.6-0.6-1-0.7-2.1-0.8-3.2-0.2-2.3 0.8-3.3 2.7-3.7 2.6-0.5 5 0.2 7.5 0.5 1.3 0.2 1.6 1 1.4 2.4-0.3 1.4-1 2.6-1.6 3.8-0.5 1-0.6 2.2-1.4 3.2-0.4-0.8-0.2-1.4 0-2.1 0.5-1.4 1.1-2.8 1.8-4.1 0.4-0.7 0.1-1.1-0.7-1.2-2.7-0.4-5.4-0.5-8.1-0.7-0.5 0-0.6 0.3-0.7 0.6-0.1 0.7 0 1.5 0.2 2.2 0.5 1.5 0.9 3 1.3 4.5 0.1 0.6 0.2 1.2-0.7 1.1-0.1 0-0.3 0.2-0.4 0.3-0.1 0.1-0.2 0.3-0.2 0.5 0.1 0.3 0.4 0.3 0.6 0.2 1.5-0.9 3.2-0.9 4.9-0.9 0.6 0 1.1 0.1 1.7 0.2 1.3 0.3 1.4 0.3 1.4 1.8 0 0.3 0.1 0.4 0.2 0.6 0.5 0.7 0.2 1.2-0.3 1.7-0.3 0.3-0.8 0.5-0.6 0.9 0.4 0.9 0.3 1.5-0.5 2.2-0.4 0.3-0.2 1-0.1 1.5 0.4 1.7 0.6 3.4 0.7 5.1 0.1 2-1 3.3-3.1 3.2-2-0.1-4-0.4-6-0.7-0.1 0-0.1 0-0.2-0.1-0.8-0.2-2 0-2.4-0.7-0.5-0.9-0.4-2.1-0.3-3.2 0-0.3 0.3-0.6 0.1-1-1.7-0.1-1.7 0-1.9 1.5-0.2 1.3-0.6 2.6-0.7 3.9-0.2 1.7 0.1 3.3 0.8 4.9 0.8 1.8 1.7 3.4 2.8 5 1.7 2.3 2.6 4.9 2.8 7.7 0.1 1.7 0.6 3.3 1.4 4.8 1.2 2.5 3.3 3.9 5.8 4.8 1.7 0.6 3.3 1.3 4.7 2.5 0.9 0.8 0.8 1.3-0.1 2-0.9 0.6-1.8 1.2-2.7 1.9-0.7 0.5-1.5 0.8-2.4 1-0.9 0.2-1.6 0-2.1-0.8-1.2-1.8-3.1-2.1-5.1-2.1C74.8 90.7 74 91 73.1 91.1zM37.7 69.9c-0.5-0.1-1-0.2-0.8 0.6 0.2 0.7 0.7 1.3 1.2 2.2C38.3 71.5 37.8 70.7 37.7 69.9c0.1 0.2 0.3 0.4 0.7 0.5 0.3-0.9 0.3-1.6-0.7-2C37.4 69 37.8 69.5 37.7 69.9zM58.9 40.8c-0.3 0.3-0.7 0.6-1.1 1 0.7-0.3 1.3-0.3 1.8-0.8C59.3 41 59.1 40.9 58.9 40.8c-0.2-0.9-0.4-1.8-0.6-2.7 0.6 0.5 0.9-0.3 1.3-0.4 1.7-0.2 2.6-1.3 3.1-2.9 0.8-2.5 1.3-5 0.4-7.6-0.6-1.6-1.3-3.2-2-4.8-0.5-1.1-1.1-2.2-2.4-2.7-1.1-0.4-2.3-0.7-3.5-0.8-1.8-0.1-3.1 0.7-4 2.2-1.5 2.7-2.4 5.5-2.4 8.6 0 1.9 0.5 3.4 1.8 4.7 1.2 1.2 1.7 2.7 2.1 4.3 0.1 0.4 0.2 0.9 0.3 1.3 0.2 0.8 0.7 1 1.4 0.7 0-0.8 0-1.6 0-2.3l0 0c0.9-0.2 1.8-0.8 2.5 0.3 0.1 0.7-0.3 1.5 0.1 2.2C57.7 41.2 58.3 40.9 58.9 40.8zM79.2 53.4c-0.9-0.4-1.5 0.2-2.1 0.8-0.8 0.7-0.8 0.8 0.1 1.7-1.4 0-1.4 0-1.4 1.5 0.2 0 0.3 0.1 0.5 0.1 0.9-0.1 1.9-1 2.5 0.6 0.1 0.4 1 0.3 1.5 0.1 0.6-0.3 0.1-0.6-0.1-1-0.2-0.4 0.1-0.7 0-1.2C79.8 55 80.2 53.9 79.2 53.4c0-0.2-0.1-0.3-0.1-0.5 0-0.4 0.2-0.8-0.3-1-0.1 0-0.2 0.1-0.3 0.1-0.2 0.4 0 0.8 0.3 1C79 53.1 79.1 53.3 79.2 53.4zM12.9 19.9c0.5 0 0.7-0.3 0.9-0.5 3-2.9 6.7-4.7 10.7-5.8 3.1-0.8 6.1-1.8 9.4-1.5 2.6 0.2 5.2 0.3 7.6 1.3 1.2 0.5 2.5 0.9 3.8 1.1 2.5 0.5 3.7-0.4 4-2.9 0.3-1.9 0.1-2.1-1.8-2.9C46.8 8.3 46 8.1 45.2 8c-3.5-0.7-6.9-1.2-10.4-1.9C31 5.4 27.3 6 23.9 7.7c-3.6 1.7-6.7 4.4-8.9 7.8C14.1 16.8 13 18.1 12.9 19.9zM39 84.6c1.8-2.7 2.7-5.3 2.9-8.1 0.3-3.8 1.6-7.2 3.9-10.2 2.7-3.6 2.5-7.5 1.7-11.8-1.1 0.6-1.5 1.4-2 2.3-0.7 1.2-1.5 2.2-2.9 2.4-0.6 0.1-0.7 0.4-0.8 1-0.2 1.5-0.3 3-0.5 4.5-0.9 5.3-1.2 10.6-2 16C39.1 81.7 38.7 82.9 39 84.6zM76 48.7c-0.7 1.4-1.4 2.5-2.1 3.6-0.7 1.1-1 2.3-1 3.6 0 0.7 0.5 1 1.1 1.1 0.6 0.1 0.8-0.1 1-0.7 0.3-0.9 0.7-1.7 1.3-2.4 0.6-0.6 1.2-1.1 1.2-2.2 0-0.8 0.9-0.8 1.5-0.9 0.7-0.1 0.7 0.5 0.7 1.1 0 0.3 0.2 0.7 0.3 1 0.7 1.1 1.3 2.2 1.5 3.4 0.1 0.3 0.1 0.9 0.6 0.9 0.6 0 0.9-0.5 1-1 0.1-0.3 0.1-0.7 0-1-0.3-1.6-0.6-3.2-0.9-4.8-0.2-1.2-0.2-1.2-1.4-1C79.3 49.8 77.7 50 76 48.7zM80.6 44.9c1.1-0.2 2.2 0 3-0.7 0.2-0.2 0.4-0.4 0.4-0.7 0-0.4-0.3-0.5-0.6-0.5-1.2-0.3-2.5-0.3-3.7-0.1-0.6 0.1-1 1-0.9 1.6 0.2 0.7 0.7 0.4 1.1 0.4C80.2 44.9 80.5 44.9 80.6 44.9zM40.7 44.4c-1.5-1-3-0.6-4.5-0.8-0.3 0-0.6 0.1-0.7 0.4-0.1 0.3 0.2 0.5 0.4 0.7 0.9 0.6 1.9 0.8 2.9 1.1C40.5 46 40.5 46.1 40.7 44.4zM84.8 45c-1.8-0.1-3.3 0.4-4.8 0.4-1 0-1.3 0.5-1.4 1.4 1.2 0.2 2.3-0.1 3.4 0C83.3 47 84.1 46.3 84.8 45zM39.2 48.2c0.8 0.1 0.6-0.5 0.7-0.9 0.2-0.4 0-0.7-0.4-0.7-1.1-0.1-2.2-0.6-3.3-0.9-0.5-0.1-0.9-0.2-1.2 0.3-0.2 0.5 0.2 0.9 0.6 1.1C36.8 47.8 38 47.9 39.2 48.2zM39.9 43c0.7 0.1 1.3 0.2 1.3-0.6 0.1-0.6-0.5-0.6-1-0.8-0.8-0.2-1.5-0.5-2.3-0.8-0.4-0.1-0.8-0.3-1.2-0.2-0.3 0.1-0.5 0.3-0.6 0.6-0.1 0.3 0.1 0.6 0.4 0.6C37.7 42.3 38.7 43.1 39.9 43zM64.2 89.9c0.8 0.9 1.7 1.5 2.2 2.4 0.3 0.4 0.7 0.3 1.1 0.1 0.4-0.2 0.3-0.6 0.2-0.9C66.9 89.4 66.6 89.2 64.2 89.9zM80.2 49.2c0.8-0.2 1.7-0.3 2.6-0.5 0.4-0.1 1-0.1 0.9-0.8-0.1-0.7-0.8-0.7-1.3-0.5-1 0.2-2 0.1-3 0.3 0 0.3 0.2 0.3 0.3 0.4C80.1 48.3 79.7 48.8 80.2 49.2zM44.1 48.1c0.7-0.8 1-1.8 1.3-2.8 0.2-0.7-0.4-1.5-1.1-1.4-0.5 0.1-1.2 0-1.5 0.6 0.3 0.1 0.6 0.2 0.9 0.4 1.4 0.6 1.5 1 0.2 1.8C42.9 47.4 43.5 47.7 44.1 48.1zM56.4 40.5c0.1-0.6 0-1.1-0.2-1.6 0-0.1-0.2-0.2-0.4-0.3-0.2-0.1-0.3 0.1-0.4 0.2-0.3 0.4-0.2 1-0.4 1.5-0.3 0.7 0.1 0.9 0.7 1C56.6 41.3 56.4 40.8 56.4 40.5zM40.5 49.4c0.5 1.2 0.5 1.2 1.7 0.6 0.4-0.2 1-0.1 0.8-0.8-0.1-0.5-0.7-0.2-1.1-0.3C41.4 49 40.9 49.1 40.5 49.4zM44.5 90.2c-0.3-0.1-0.4-0.1-0.5-0.1-1 0-1.7 0.8-1.6 1.8 0 0.3 0.2 0.4 0.4 0.5 0.1 0 0.4 0 0.4-0.1C43.6 91.6 44.2 91 44.5 90.2zM74.5 49.8c0.4-0.3 0.5-0.8 0.7-1.2 0.5-1.1 0.5-1.1-0.7-1.7C74.3 47.9 73.8 48.9 74.5 49.8zM67.6 89.4c0.1 0.6 0.4 1.1 0.8 1.5 0.3 0.3 0.7 0.3 1.1 0 0.4-0.4 0.2-0.7-0.2-1C68.8 89.5 68.3 89 67.6 89.4zM37.8 84.4c0.2-1.8 0.9-3.5 0.5-5.4C38.3 80.8 37.7 82.5 37.8 84.4zM46.5 91c-0.2-0.2-0.4-0.5-0.8-0.5-0.9-0.1-0.7 0.8-0.9 1.2-0.1 0.3 0.2 0.7 0.4 0.6C45.9 92.1 46.3 91.7 46.5 91zM42.1 90.3c-1 0.4-1.7 0.6-2.4 0.9C40.8 92.3 40.8 92.3 42.1 90.3zM38.8 62.3c0.7-1.4 1-2.8 0.4-4.2C39.4 59.5 38.9 60.8 38.8 62.3zM60.5 39.9c1.1-0.6 1.1-0.6 0.6-2.1C60.6 38.4 60.3 39.1 60.5 39.9zM68.4 95c0.2-0.6 0.2-1.1-0.1-1.6-0.1-0.2-0.3-0.3-0.6-0.2-0.2 0.1-0.4 0.3-0.3 0.5C67.6 94.2 67.7 94.6 68.4 95zM39.2 53.9c-0.9 1.3-0.4 2 0.4 2.7C39.7 55.6 39.2 54.9 39.2 53.9zM59.6 38.4c-0.6 1-0.6 1-0.3 2.2C60.6 40 59.7 39.1 59.6 38.4zM41.1 54.5c0.6-0.9 0.6-0.9-0.8-2.1C40.3 53.3 40.6 53.9 41.1 54.5zM72.1 92.5c0.1-0.7 0.8-1.1 0.1-1.6-0.3-0.2-0.6-0.1-0.8 0.3C71 91.8 71.6 92 72.1 92.5zM74.9 45.7c0.4-0.2 1.2-0.1 1.1-0.9 0-0.2-0.3-0.5-0.4-0.5C74.9 44.5 74.5 44.8 74.9 45.7zM70.4 93.3c-0.1-0.5-0.1-0.9-0.3-1.3-0.1-0.3-0.3-0.5-0.6-0.3-0.3 0.2-0.3 0.5-0.1 0.7C69.7 92.7 69.8 93.2 70.4 93.3zM38.2 59.5c-0.3 0.6-0.6 1.1 0.2 1.9C38.4 60.6 38.6 60 38.2 59.5zM39.9 92.8c0.2-0.2 0-0.4-0.1-0.4-0.4-0.3-0.7-0.1-1 0.3-0.1 0.2-0.2 0.5 0.1 0.6C39.3 93.3 39.7 93.1 39.9 92.8zM41.4 94.2c0.7-0.2 1.2-0.4 1.1-1.1 0-0.1-0.3-0.2-0.4-0.2C41.5 93 41.4 93.5 41.4 94.2zM44.4 41.9c-0.7-0.8-1.3-0.7-2-0.5C43 41.7 43.5 42 44.4 41.9zM44.5 92.7c-0.4 0.7-0.8 1.1-0.7 1.9C44.4 94 45 93.7 44.5 92.7zM36.6 74.3c0.8-0.5 0.8-1 0-1.5C36.3 73.3 36.3 73.8 36.6 74.3zM44.6 21.1c0 0 0.1-0.1 0.1-0.1 0-0.3 0.1-0.6-0.2-0.7-0.2-0.1-0.3-0.1-0.3 0.1 0 0.3 0.2 0.5 0.3 0.7C44.5 21.1 44.6 21.1 44.6 21.1zM43.8 23.2c-0.1 0.7 0.1 1.1 0.5 1.5C44.6 24.1 44.5 23.7 43.8 23.2zM77.9 44.4c-0.1-0.2-0.4-0.2-0.6-0.2-0.2 0-0.5 0.1-0.4 0.4 0.1 0.2 0.4 0.1 0.6 0.1C77.8 44.7 77.9 44.5 77.9 44.4zM42.5 24.4c-0.2 0.4-0.5 0.6-0.3 1 0 0.1 0.3 0.1 0.3 0.1C42.8 25.2 42.6 24.9 42.5 24.4zM44.4 26.6c-0.1-0.3-0.2-0.5-0.5-0.5-0.1 0-0.1 0.3-0.1 0.4 0 0.2 0.1 0.5 0.4 0.4C44.3 26.9 44.3 26.7 44.4 26.6zM39.7 49.3c-0.2 0.6-0.3 1.1 0.6 1.5C40.2 50.2 40.2 49.7 39.7 49.3zM40.1 55.8c-0.2 0.6-0.1 1 0.1 1.5C40.3 56.7 40.3 56.4 40.1 55.8zM42.8 33c-0.1 0.6 0 0.9 0.5 1.1C43.6 33.6 43.3 33.3 42.8 33zM77.3 46.7c-0.1 0.1-0.2 0.3-0.3 0.4 0.1 0 0.2 0.1 0.3 0.1 0.2 0 0.3-0.1 0.3-0.3C77.6 46.8 77.4 46.7 77.3 46.7zM45.8 15.6c-0.2 0.1-0.3 0.3-0.2 0.5 0.1 0.1 0.2 0.2 0.4 0.3 0.1-0.2 0.2-0.4 0.2-0.6C46.2 15.7 46 15.6 45.8 15.6z" fill="#f0f0f0" data-fill-palette-color="accent"></path><path d="M49.8 29.5c1.7 0.4 3.1 1.1 4.6 1.7 0.7 0.3 0.6 0.6 0.3 1.2-0.9 1.4-2.8 1.3-4.1-0.1C49.8 31.7 49.4 30.8 49.8 29.5z" fill="#f0f0f0" data-fill-palette-color="accent"></path><path d="M58.3 32.2c-0.1 0-0.1 0-0.2 0-0.5-0.2-1.2 0-1.4-0.5-0.2-0.7 0.4-1 1-1.2 1.1-0.6 2.4-0.9 3.4-1.6 0.4-0.3 0.9-0.3 1.3 0.1 0.4 0.4 0.1 0.9-0.2 1.3C61.3 31.6 59.9 32.1 58.3 32.2z" fill="#f0f0f0" data-fill-palette-color="accent"></path><path d="M54.7 36.3c0.2-0.6 0.3-1.2 0.5-1.8 0.1-0.4 0.3-0.8 0.7-0.9 0.5-0.1 0.7 0.2 1 0.5 0.9 1.1 0.8 1.4-0.6 1.9C55.9 36.3 55.3 36.7 54.7 36.3z" fill="#f0f0f0" data-fill-palette-color="accent"></path><path d="M54.5 38.6c-0.1-0.1-0.3-0.2-0.4-0.3-0.2-0.3-0.7 0.4-0.8-0.2-0.1-0.3 0.2-0.5 0.5-0.6 0.6-0.1 0.6 0.3 0.7 0.7C54.5 38.4 54.5 38.5 54.5 38.6 54.5 38.6 54.5 38.6 54.5 38.6z" fill="#f0f0f0" data-fill-palette-color="accent"></path><path d="M58.4 38.2c-0.7-0.3-0.9 0.6-1.4 0.7C57.4 37.8 57.6 37.7 58.4 38.2z" fill="#f0f0f0" data-fill-palette-color="accent"></path><path d="M45.8 12.4c-0.5-0.1-1.1-0.3-1.1-1-0.1-0.7 0.4-1.2 1.1-1.3 0.5 0 1.2 0.7 1.2 1.2C47.1 11.8 46.5 12.4 45.8 12.4z" fill="#f0f0f0" data-fill-palette-color="accent"></path><path d="M78.9 55.4c0 0.2-0.2 0.3-0.3 0.2-0.2 0-0.4-0.2-0.4-0.4 0-0.2 0.2-0.3 0.3-0.2C78.7 55 78.8 55.1 78.9 55.4z" fill="#f0f0f0" data-fill-palette-color="accent"></path></svg></g></svg></g><g></g></svg></g></svg></g></svg></g><defs></defs></svg><rect width="320" height="360" fill="none" stroke="none" visibility="hidden"></rect></g></svg></g></svg>